<?xml version="1.0" encoding="utf-8"?>
<!-- Generator: Adobe Illustrator 25.2.3, SVG Export Plug-In . SVG Version: 6.00 Build 0)  -->
<svg version="1.1" xmlns="http://www.w3.org/2000/svg" xmlns:xlink="http://www.w3.org/1999/xlink" x="0px" y="0px"
	 viewBox="0 0 100 50" style="enable-background:new 0 0 100 50;" xml:space="preserve">
<style type="text/css">
	.st0{fill:#CCCCCC;}
	.st1{font-family:'HelveticaNeueLT-Medium';}
	.st2{font-size:11.4948px;}
	.st3{fill:#D0D2D3;stroke:#FFFFFF;stroke-width:5.000000e-02;stroke-miterlimit:10;}
	.st4{fill:#808184;stroke:#FFFFFF;stroke-width:5.000000e-02;stroke-miterlimit:10;}
	.st5{fill:#FFFFFF;stroke:#FFFFFF;stroke-width:5.000000e-02;stroke-miterlimit:10;}
	.st6{fill:#58595B;stroke:#FFFFFF;stroke-width:5.000000e-02;stroke-miterlimit:10;}
	.st7{fill:#A6A8AB;stroke:#FFFFFF;stroke-width:5.000000e-02;stroke-miterlimit:10;}
</style>
<g id="Layer_1">
</g>
<g id="Default">
	<g>
		<text transform="matrix(1 0 0 1 3.3335 28.2979)" class="st0 st1 st2">G-Shark</text>
		<g>
			<polygon class="st3" points="44.5,33 49.4,36.6 48.1,33 			"/>
			<polygon class="st4" points="43.4,33 47.4,35.4 44.1,33 			"/>
			<polygon class="st3" points="48.3,33 49.6,36.6 50.9,33.3 			"/>
			<polygon class="st5" points="50.4,35.1 51.2,33.5 51.1,33.3 			"/>
			<polygon class="st4" points="49.8,37.3 51.3,43.1 52,40.5 			"/>
			<polygon class="st6" points="49.9,36.5 52.5,34.7 51.3,33.7 			"/>
			<polygon class="st4" points="49.7,36.8 52,40.2 52.5,35 			"/>
			<polygon class="st6" points="53.5,27.4 54.5,26.7 55.8,24 			"/>
			<polygon class="st7" points="51.1,33.1 51.3,33.3 52.1,30.6 			"/>
			<polygon class="st7" points="51.5,33.3 57,30.8 53.2,28 			"/>
			<polygon class="st5" points="51.5,33.5 52.6,34.6 56.6,31.2 			"/>
			<polygon class="st4" points="53.3,27.8 56.8,30.4 54.5,26.9 			"/>
			<polygon class="st7" points="54.8,26.9 57.3,30.7 62.3,29.3 			"/>
			<polygon class="st7" points="54.7,26.7 62.3,29.1 56.6,22.9 			"/>
			<polygon class="st6" points="56.7,22.7 62.5,29 61,19.5 			"/>
			<polygon class="st6" points="60.9,34.6 67.2,29.7 62.7,29.4 			"/>
			<polygon class="st3" points="61.2,19.5 62.7,29 68.3,20.4 			"/>
			<polygon class="st7" points="61.5,19.3 68.4,20.2 69.9,16.5 			"/>
			<polygon class="st4" points="61.2,19.2 69.8,16.3 63.2,11.1 			"/>
			<polygon class="st7" points="62.8,29.2 67.4,29.6 68.3,20.7 			"/>
			<polygon class="st3" points="67.9,29.5 70.5,29.4 70.4,27.8 			"/>
			<polygon class="st6" points="67.6,29.5 70.4,27.6 68.5,20.9 			"/>
			<polygon class="st4" points="70.6,27.9 70.7,29.4 71.9,29.5 			"/>
			<polygon class="st7" points="68.7,20.1 74.9,16.5 70.1,16.5 			"/>
			<polygon class="st6" points="68.6,20.5 70.5,27.5 77.6,24.3 			"/>
			<polygon class="st4" points="70.6,27.7 72.2,29.4 77.3,24.7 			"/>
			<polygon class="st7" points="72.4,29.7 76.3,33.6 78.3,30.3 			"/>
			<polygon class="st3" points="68.7,20.3 77.7,24.1 75.2,16.5 			"/>
			<polygon class="st6" points="72.4,29.5 78.3,30.1 77.8,24.5 			"/>
			<polygon class="st4" points="75.4,16.5 77.9,24.1 83.3,19.1 			"/>
			<polygon class="st3" points="78.2,24.1 85.3,21.9 83.4,19.2 			"/>
			<polygon class="st4" points="78,24.5 78.5,30.1 86,29.6 			"/>
			<polygon class="st6" points="78.1,24.3 86.2,29.5 85.4,22 			"/>
			<polygon class="st4" points="85.6,22.3 86.4,29.5 89.6,27.8 			"/>
			<polygon class="st6" points="85.7,22 89.8,27.6 91.9,22.6 			"/>
			<polygon class="st4" points="87,29.4 91.2,28.4 89.8,27.9 			"/>
			<polygon class="st3" points="89.9,27.7 91.4,28.3 91.9,23.2 			"/>
			<polygon class="st4" points="91.6,28.3 93.3,27.8 92,23.1 			"/>
			<polygon class="st6" points="83.7,19.3 85.5,21.8 91.3,22.4 			"/>
			<polygon class="st4" points="92.2,23 93.5,27.7 95.3,26.6 			"/>
			<polygon class="st4" points="92.4,22.9 95.5,26.5 97.3,25.7 			"/>
		</g>
	</g>
</g>
</svg>
